<svg width="24" height="24" viewBox="0 0 24 24" fill="#000" xmlns="http://www.w3.org/2000/svg">
<path fill-rule="evenodd" clip-rule="evenodd" d="M2.3999 6C2.3999 3.38579 4.53569 1.25 7.1499 1.25H16.1499C18.7641 1.25 20.8999 3.38579 20.8999 6V13C20.8999 13.4142 20.5641 13.75 20.1499 13.75C19.7357 13.75 19.3999 13.4142 19.3999 13V6C19.3999 4.21421 17.9357 2.75 16.1499 2.75H7.1499C5.36412 2.75 3.8999 4.21421 3.8999 6V18C3.8999 19.7858 5.36412 21.25 7.1499 21.25H11.1499C11.5641 21.25 11.8999 21.5858 11.8999 22C11.8999 22.4142 11.5641 22.75 11.1499 22.75H7.1499C4.53569 22.75 2.3999 20.6142 2.3999 18V6Z"/>
<path opacity="0.4" fill-rule="evenodd" clip-rule="evenodd" d="M14.1499 4.25C14.5641 4.25 14.8999 4.58579 14.8999 5V6C14.8999 6.68579 15.4641 7.25 16.1499 7.25H17.1499C17.5641 7.25 17.8999 7.58579 17.8999 8C17.8999 8.41421 17.5641 8.75 17.1499 8.75H16.1499C14.6357 8.75 13.3999 7.51421 13.3999 6V5C13.3999 4.58579 13.7357 4.25 14.1499 4.25Z"/>
<path opacity="0.4" fill-rule="evenodd" clip-rule="evenodd" d="M11.0076 12.9916C12.0036 11.9835 13.62 11.9895 14.6201 12.9897L19.8639 18.2335C20.1897 18.5461 20.3609 18.9448 20.4211 19.336L20.4225 19.3449L20.744 21.616L20.7452 21.6272C20.7778 21.9208 20.6894 22.233 20.4548 22.4619C20.2235 22.6875 19.9156 22.7683 19.6322 22.7349L19.6234 22.7339L17.3458 22.4114C16.9631 22.3525 16.5524 22.1834 16.2411 21.832L11.0112 16.6021C10.0039 15.6068 10.0094 13.9919 11.0076 12.9916ZM13.5595 14.0504C13.1403 13.6312 12.4781 13.6366 12.0739 14.0466L12.0702 14.0504C11.651 14.4696 11.6564 15.1318 12.0664 15.536L12.0702 15.5397L17.3416 20.8112L17.3613 20.8343C17.3872 20.8648 17.4448 20.9082 17.5702 20.9282L19.1636 21.1538L18.938 19.5604C18.9183 19.4371 18.8724 19.3603 18.824 19.3145L18.8166 19.3075L13.5595 14.0504Z"/>
</svg>